<?xml version="1.0" standalone="no"?>
<!DOCTYPE svg PUBLIC "-//W3C//DTD SVG 20010904//EN"
 "http://www.w3.org/TR/2001/REC-SVG-20010904/DTD/svg10.dtd">
<svg version="1.0" xmlns="http://www.w3.org/2000/svg"
 width="200.000000pt" height="200.000000pt" viewBox="0 0 200.000000 200.000000"
 preserveAspectRatio="xMidYMid meet">

<g transform="translate(0.000000,200.000000) scale(0.100000,-0.100000)"
fill="#000000" stroke="none">
<path d="M969 1614 c-63 -69 -202 -122 -340 -131 -48 -3 -92 -9 -98 -12 -6 -4
-21 -63 -33 -132 -18 -100 -22 -163 -23 -329 0 -230 11 -287 70 -364 62 -82
228 -192 393 -260 l63 -27 90 40 c139 62 247 130 320 201 56 55 70 76 90 135
22 65 24 84 24 275 -1 167 -5 228 -23 329 -12 69 -28 129 -35 133 -6 4 -34 8
-60 8 -126 0 -296 59 -359 123 -19 21 -39 37 -45 37 -5 0 -20 -12 -34 -26z
m81 -88 c28 -19 75 -44 106 -55 54 -21 204 -51 250 -51 19 0 24 -7 33 -52 24
-121 34 -231 34 -368 1 -165 -16 -250 -61 -315 -41 -59 -151 -137 -289 -207
l-123 -61 -122 61 c-139 70 -249 148 -290 207 -45 66 -62 150 -61 315 0 136
10 248 34 366 l10 52 67 7 c138 13 293 66 337 115 10 11 20 20 22 20 2 0 26
-15 53 -34z"/>
<path d="M739 1105 c-28 -15 -59 -70 -59 -105 0 -57 65 -120 125 -120 38 0 92
33 107 65 l11 25 187 0 c154 0 190 3 200 15 7 8 10 22 6 30 -4 13 -35 15 -200
15 -184 0 -195 1 -201 20 -3 10 -20 31 -36 45 -35 29 -97 33 -140 10z m105
-56 c47 -37 23 -109 -36 -109 -63 0 -91 68 -46 110 28 25 48 25 82 -1z"/>
<path d="M1137 924 c-4 -4 -7 -16 -7 -26 0 -17 8 -19 93 -16 84 3 92 5 92 23
0 18 -8 20 -85 23 -47 1 -89 0 -93 -4z"/>
</g>
</svg>
